<svg xmlns="http://www.w3.org/2000/svg" xmlns:xlink="http://www.w3.org/1999/xlink" width="500" zoomAndPan="magnify" viewBox="0 0 375 374.999991" height="500" preserveAspectRatio="xMidYMid meet" version="1.0"><defs><g/><clipPath id="5d7350b042"><path d="M 79 63 L 253 63 L 253 123 L 79 123 Z M 79 63 " clip-rule="nonzero"/></clipPath><clipPath id="9400ea7266"><path d="M 181.632812 17.859375 L 333.976562 178.308594 L 173.527344 330.652344 L 21.183594 170.199219 Z M 181.632812 17.859375 " clip-rule="nonzero"/></clipPath><clipPath id="ebceff46a1"><path d="M 181.632812 17.859375 L 333.976562 178.308594 L 173.527344 330.652344 L 21.183594 170.199219 Z M 181.632812 17.859375 " clip-rule="nonzero"/></clipPath><clipPath id="0fa314cfb9"><path d="M 181.632812 17.859375 L 333.976562 178.308594 L 173.527344 330.652344 L 21.183594 170.199219 Z M 181.632812 17.859375 " clip-rule="nonzero"/></clipPath><clipPath id="498ffe5f97"><path d="M 66 172 L 278 172 L 278 285 L 66 285 Z M 66 172 " clip-rule="nonzero"/></clipPath><clipPath id="4898f8790b"><path d="M 181.632812 17.859375 L 333.976562 178.308594 L 173.527344 330.652344 L 21.183594 170.199219 Z M 181.632812 17.859375 " clip-rule="nonzero"/></clipPath><clipPath id="a4d83aae54"><path d="M 181.632812 17.859375 L 333.976562 178.308594 L 173.527344 330.652344 L 21.183594 170.199219 Z M 181.632812 17.859375 " clip-rule="nonzero"/></clipPath><clipPath id="d748949e1a"><path d="M 181.632812 17.859375 L 333.976562 178.308594 L 173.527344 330.652344 L 21.183594 170.199219 Z M 181.632812 17.859375 " clip-rule="nonzero"/></clipPath></defs><g fill="#222222" fill-opacity="1"><g transform="translate(61.640625, 204.534947)"><g><path d="M 14.203125 -0.859375 L 14.203125 0 L 2.875 0 L 2.875 -0.859375 C 3.195312 -0.859375 3.644531 -1.304688 4.21875 -2.203125 C 4.800781 -3.097656 5.09375 -5.113281 5.09375 -8.25 L 5.09375 -59.140625 C 5.09375 -62.335938 4.800781 -64.367188 4.21875 -65.234375 C 3.644531 -66.097656 3.195312 -66.53125 2.875 -66.53125 L 2.875 -67.390625 L 44.546875 -67.390625 L 44.546875 -59.234375 L 43.6875 -59.234375 C 40.738281 -61.085938 37.726562 -62.640625 34.65625 -63.890625 C 31.582031 -65.140625 27.644531 -66.019531 22.84375 -66.53125 L 12 -66.53125 L 12 -38.296875 C 16.988281 -38.367188 20.8125 -38.691406 23.46875 -39.265625 C 26.125 -39.835938 27.945312 -40.425781 28.9375 -41.03125 C 29.9375 -41.644531 30.4375 -41.953125 30.4375 -41.953125 L 31.296875 -41.953125 L 31.296875 -33.796875 L 30.4375 -33.796875 C 30.4375 -33.796875 29.9375 -34.097656 28.9375 -34.703125 C 27.945312 -35.304688 26.125 -35.910156 23.46875 -36.515625 C 20.8125 -37.128906 16.988281 -37.4375 12 -37.4375 L 12 -8.25 C 12 -5.113281 12.300781 -3.097656 12.90625 -2.203125 C 13.519531 -1.304688 13.953125 -0.859375 14.203125 -0.859375 Z M 14.203125 -0.859375 "/></g></g></g><g fill="#222222" fill-opacity="1"><g transform="translate(109.06463, 204.534947)"><g><path d="M 4.03125 -24.953125 C 2.8125 -29.503906 2.519531 -34.003906 3.15625 -38.453125 C 3.800781 -42.898438 5.226562 -47.039062 7.4375 -50.875 C 9.644531 -54.71875 12.507812 -58.015625 16.03125 -60.765625 C 19.550781 -63.515625 23.582031 -65.5 28.125 -66.71875 C 32.664062 -67.9375 37.160156 -68.222656 41.609375 -67.578125 C 46.054688 -66.941406 50.203125 -65.519531 54.046875 -63.3125 C 57.890625 -61.101562 61.1875 -58.238281 63.9375 -54.71875 C 66.6875 -51.195312 68.671875 -47.164062 69.890625 -42.625 C 71.109375 -38.082031 71.394531 -33.601562 70.75 -29.1875 C 70.113281 -24.769531 68.691406 -20.640625 66.484375 -16.796875 C 64.273438 -12.960938 61.410156 -9.648438 57.890625 -6.859375 C 54.367188 -4.078125 50.335938 -2.078125 45.796875 -0.859375 C 41.242188 0.347656 36.757812 0.632812 32.34375 0 C 27.9375 -0.632812 23.8125 -2.054688 19.96875 -4.265625 C 16.125 -6.472656 12.8125 -9.335938 10.03125 -12.859375 C 7.25 -16.378906 5.25 -20.410156 4.03125 -24.953125 Z M 63.078125 -40.796875 C 62.109375 -44.578125 60.535156 -48.191406 58.359375 -51.640625 C 56.191406 -55.097656 53.554688 -58.109375 50.453125 -60.671875 C 47.347656 -63.234375 43.9375 -65.023438 40.21875 -66.046875 C 36.507812 -67.066406 32.578125 -67.035156 28.421875 -65.953125 C 24.253906 -64.859375 20.8125 -62.921875 18.09375 -60.140625 C 15.375 -57.359375 13.3125 -54.09375 11.90625 -50.34375 C 10.5 -46.601562 9.726562 -42.6875 9.59375 -38.59375 C 9.46875 -34.5 9.882812 -30.5625 10.84375 -26.78125 C 11.875 -23.070312 13.472656 -19.488281 15.640625 -16.03125 C 17.816406 -12.570312 20.441406 -9.5625 23.515625 -7 C 26.585938 -4.445312 30.007812 -2.640625 33.78125 -1.578125 C 37.5625 -0.523438 41.5 -0.578125 45.59375 -1.734375 C 49.757812 -2.816406 53.1875 -4.75 55.875 -7.53125 C 58.5625 -10.320312 60.609375 -13.585938 62.015625 -17.328125 C 63.421875 -21.066406 64.203125 -24.984375 64.359375 -29.078125 C 64.523438 -33.179688 64.097656 -37.085938 63.078125 -40.796875 Z M 63.078125 -40.796875 "/></g></g></g><g fill="#222222" fill-opacity="1"><g transform="translate(183.080639, 204.534947)"><g><path d="M 11.046875 -0.859375 L 11.046875 0 L 2.875 0 L 2.875 -0.859375 C 3.519531 -0.859375 4.65625 -1.289062 6.28125 -2.15625 C 7.914062 -3.019531 9.914062 -4.925781 12.28125 -7.875 L 31.203125 -33.21875 L 17.09375 -53.859375 L 14.96875 -56.921875 L 12.09375 -61.15625 C 11.007812 -62.75 10.003906 -64.039062 9.078125 -65.03125 C 8.148438 -66.03125 7.332031 -66.53125 6.625 -66.53125 L 6.625 -67.390625 L 20.921875 -67.390625 L 20.921875 -66.53125 C 20.472656 -66.53125 20.425781 -65.535156 20.78125 -63.546875 C 21.132812 -61.566406 22.207031 -59.039062 24 -55.96875 L 35.515625 -39.078125 L 48.765625 -56.921875 C 51.390625 -60.503906 52.972656 -63 53.515625 -64.40625 C 54.066406 -65.820312 53.925781 -66.53125 53.09375 -66.53125 L 53.09375 -67.390625 L 61.15625 -67.390625 L 61.15625 -66.53125 C 60.507812 -66.53125 59.367188 -66.082031 57.734375 -65.1875 C 56.109375 -64.289062 54.078125 -62.335938 51.640625 -59.328125 L 36 -38.296875 L 52.984375 -13.53125 C 55.484375 -10.007812 57.675781 -7.015625 59.5625 -4.546875 C 61.457031 -2.085938 62.785156 -0.859375 63.546875 -0.859375 L 63.546875 0 L 49.25 0 L 49.25 -0.859375 C 49.695312 -0.859375 49.804688 -1.738281 49.578125 -3.5 C 49.359375 -5.257812 48.222656 -7.898438 46.171875 -11.421875 L 31.6875 -32.546875 L 15.265625 -10.46875 C 12.640625 -6.945312 11.070312 -4.460938 10.5625 -3.015625 C 10.050781 -1.578125 10.210938 -0.859375 11.046875 -0.859375 Z M 11.046875 -0.859375 "/></g></g></g><g fill="#222222" fill-opacity="1"><g transform="translate(249.512649, 204.534947)"><g><path d="M 52.796875 -55.390625 L 37.4375 -24 L 37.4375 -8.25 C 37.4375 -5.113281 37.738281 -3.097656 38.34375 -2.203125 C 38.957031 -1.304688 39.390625 -0.859375 39.640625 -0.859375 L 39.640625 0 L 28.421875 0 L 28.421875 -0.859375 C 28.734375 -0.859375 29.175781 -1.304688 29.75 -2.203125 C 30.332031 -3.097656 30.625 -5.113281 30.625 -8.25 L 30.625 -22.265625 L 13.34375 -54.234375 C 11.875 -56.347656 10.5 -58.347656 9.21875 -60.234375 C 7.9375 -62.128906 6.765625 -63.664062 5.703125 -64.84375 C 4.648438 -66.03125 3.707031 -66.625 2.875 -66.625 L 2.875 -67.484375 L 17.1875 -67.484375 L 17.1875 -66.625 C 16.800781 -66.625 16.703125 -65.851562 16.890625 -64.3125 C 17.085938 -62.78125 17.828125 -60.703125 19.109375 -58.078125 L 36.953125 -24.953125 L 52.796875 -57.3125 C 52.992188 -57.757812 53.300781 -58.476562 53.71875 -59.46875 C 54.132812 -60.457031 54.46875 -61.492188 54.71875 -62.578125 C 54.976562 -63.671875 54.976562 -64.617188 54.71875 -65.421875 C 54.46875 -66.222656 53.796875 -66.625 52.703125 -66.625 L 52.703125 -67.484375 L 60.953125 -67.484375 L 60.953125 -66.625 C 60.253906 -66.625 59.25 -65.835938 57.9375 -64.265625 C 56.625 -62.703125 54.910156 -59.742188 52.796875 -55.390625 Z M 52.796875 -55.390625 "/></g></g></g><g clip-path="url(#5d7350b042)"><g clip-path="url(#9400ea7266)"><g clip-path="url(#ebceff46a1)"><g clip-path="url(#0fa314cfb9)"><path fill="#000000" d="M 80.460938 122.617188 C 85.894531 112.339844 93.058594 102.773438 101.9375 94.34375 C 143.996094 54.410156 209.558594 54.230469 251.769531 92.617188 L 252.15625 92.164062 C 243.21875 84.042969 233.125 77.488281 222.054688 72.667969 C 208.9375 66.945312 195.003906 63.859375 180.636719 63.507812 C 166.273438 63.15625 152.179688 65.515625 138.792969 70.546875 C 124.910156 75.761719 112.371094 83.621094 101.53125 93.914062 C 92.714844 102.289062 85.460938 111.851562 79.851562 122.4375 C 80.058594 122.503906 80.253906 122.554688 80.460938 122.617188 Z M 80.460938 122.617188 " fill-opacity="1" fill-rule="nonzero"/></g></g></g></g><g clip-path="url(#498ffe5f97)"><g clip-path="url(#4898f8790b)"><g clip-path="url(#a4d83aae54)"><g clip-path="url(#d748949e1a)"><path fill="#000000" d="M 276.820312 221.960938 C 271.195312 233.640625 263.402344 244.5 253.449219 253.949219 C 209.402344 295.769531 139.59375 293.996094 97.816406 249.988281 C 77.089844 228.164062 67.101562 199.984375 67.675781 172.011719 C 67.453125 172.019531 67.242188 172.042969 67.019531 172.054688 C 66.722656 186.179688 69.085938 200.019531 74.039062 213.203125 C 79.238281 227.082031 87.101562 239.597656 97.386719 250.425781 C 107.667969 261.253906 119.773438 269.742188 133.347656 275.671875 C 146.46875 281.332031 160.402344 284.417969 174.78125 284.785156 C 189.160156 285.152344 203.238281 282.777344 216.625 277.746094 C 230.511719 272.53125 243.03125 264.65625 253.871094 254.363281 C 263.703125 245.03125 271.613281 234.203125 277.425781 222.140625 C 277.21875 222.078125 277.027344 222.027344 276.820312 221.960938 Z M 276.820312 221.960938 " fill-opacity="1" fill-rule="nonzero"/></g></g></g></g><g fill="#222222" fill-opacity="1"><g transform="translate(126.601798, 228.312494)"><g><path d="M 4.890625 0.1875 C 3.640625 0.1875 2.660156 -0.0625 1.953125 -0.5625 C 1.253906 -1.0625 0.90625 -1.679688 0.90625 -2.421875 C 0.90625 -3.304688 1.363281 -3.75 2.28125 -3.75 C 2.289062 -2.507812 2.519531 -1.570312 2.96875 -0.9375 C 3.414062 -0.3125 4.101562 0 5.03125 0 C 5.832031 0 6.484375 -0.234375 6.984375 -0.703125 C 7.484375 -1.171875 7.734375 -1.875 7.734375 -2.8125 C 7.734375 -3.375 7.628906 -3.832031 7.421875 -4.1875 C 7.210938 -4.539062 6.878906 -4.859375 6.421875 -5.140625 C 5.960938 -5.429688 5.359375 -5.75 4.609375 -6.09375 C 4.210938 -6.28125 3.804688 -6.484375 3.390625 -6.703125 C 2.984375 -6.921875 2.609375 -7.1875 2.265625 -7.5 C 1.921875 -7.8125 1.644531 -8.1875 1.4375 -8.625 C 1.226562 -9.070312 1.125 -9.613281 1.125 -10.25 C 1.125 -11.382812 1.484375 -12.25 2.203125 -12.84375 C 2.929688 -13.4375 3.90625 -13.734375 5.125 -13.734375 C 5.851562 -13.734375 6.492188 -13.628906 7.046875 -13.421875 C 7.609375 -13.222656 8.046875 -12.957031 8.359375 -12.625 C 8.671875 -12.300781 8.828125 -11.941406 8.828125 -11.546875 C 8.828125 -11.179688 8.6875 -10.894531 8.40625 -10.6875 C 8.125 -10.476562 7.765625 -10.375 7.328125 -10.375 C 7.328125 -11.425781 7.15625 -12.21875 6.8125 -12.75 C 6.46875 -13.28125 5.898438 -13.546875 5.109375 -13.546875 C 4.367188 -13.546875 3.78125 -13.320312 3.34375 -12.875 C 2.90625 -12.4375 2.6875 -11.785156 2.6875 -10.921875 C 2.6875 -10.304688 2.800781 -9.804688 3.03125 -9.421875 C 3.257812 -9.046875 3.601562 -8.722656 4.0625 -8.453125 C 4.519531 -8.179688 5.097656 -7.878906 5.796875 -7.546875 C 6.429688 -7.253906 7.015625 -6.953125 7.546875 -6.640625 C 8.085938 -6.328125 8.523438 -5.925781 8.859375 -5.4375 C 9.191406 -4.945312 9.359375 -4.316406 9.359375 -3.546875 C 9.359375 -2.398438 8.96875 -1.488281 8.1875 -0.8125 C 7.40625 -0.144531 6.304688 0.1875 4.890625 0.1875 Z M 4.890625 0.1875 "/></g></g></g><g fill="#222222" fill-opacity="1"><g transform="translate(147.201906, 228.312494)"><g><path d="M 3.03125 0 L 3.03125 -0.1875 L 3.28125 -0.1875 C 4.320312 -0.1875 4.84375 -0.644531 4.84375 -1.5625 L 4.84375 -13.359375 L 3.28125 -13.359375 C 2.320312 -13.359375 1.648438 -13.175781 1.265625 -12.8125 C 0.878906 -12.445312 0.660156 -11.789062 0.609375 -10.84375 L 0.5625 -10.21875 L 0.375 -10.21875 L 0.5 -13.546875 L 11.140625 -13.546875 L 11.25 -10.21875 L 11.0625 -10.21875 L 11.015625 -10.84375 C 10.953125 -11.789062 10.726562 -12.445312 10.34375 -12.8125 C 9.96875 -13.175781 9.300781 -13.359375 8.34375 -13.359375 L 6.75 -13.359375 L 6.75 -1.5625 C 6.75 -0.644531 7.269531 -0.1875 8.3125 -0.1875 L 8.5625 -0.1875 L 8.5625 0 Z M 3.03125 0 "/></g></g></g><g fill="#222222" fill-opacity="1"><g transform="translate(169.111127, 228.312494)"><g><path d="M 6.859375 0.1875 C 5.367188 0.1875 4.203125 -0.140625 3.359375 -0.796875 C 2.515625 -1.453125 2.09375 -2.550781 2.09375 -4.09375 L 2.09375 -12.0625 C 2.09375 -12.925781 1.570312 -13.359375 0.53125 -13.359375 L 0.28125 -13.359375 L 0.28125 -13.546875 L 5.796875 -13.546875 L 5.796875 -13.359375 L 5.5625 -13.359375 C 4.519531 -13.359375 4 -12.90625 4 -12 L 4 -3.984375 C 4 -2.972656 4.132812 -2.179688 4.40625 -1.609375 C 4.675781 -1.046875 5.050781 -0.648438 5.53125 -0.421875 C 6.019531 -0.203125 6.566406 -0.09375 7.171875 -0.09375 C 8.460938 -0.09375 9.476562 -0.429688 10.21875 -1.109375 C 10.957031 -1.785156 11.328125 -2.71875 11.328125 -3.90625 L 11.328125 -12.0625 C 11.328125 -12.925781 10.804688 -13.359375 9.765625 -13.359375 L 9.515625 -13.359375 L 9.515625 -13.546875 L 13.3125 -13.546875 L 13.3125 -13.359375 L 13.0625 -13.359375 C 12.03125 -13.359375 11.515625 -12.898438 11.515625 -11.984375 L 11.515625 -3.875 C 11.515625 -2.601562 11.113281 -1.609375 10.3125 -0.890625 C 9.519531 -0.171875 8.367188 0.1875 6.859375 0.1875 Z M 6.859375 0.1875 "/></g></g></g><g fill="#222222" fill-opacity="1"><g transform="translate(192.993503, 228.312494)"><g><path d="M 0.71875 0 L 0.71875 -0.1875 L 0.96875 -0.1875 C 2 -0.1875 2.515625 -0.644531 2.515625 -1.5625 L 2.515625 -12.0625 C 2.515625 -12.925781 2 -13.359375 0.96875 -13.359375 L 0.71875 -13.359375 L 0.71875 -13.546875 L 6.53125 -13.546875 C 8.476562 -13.546875 9.992188 -12.957031 11.078125 -11.78125 C 12.160156 -10.601562 12.703125 -8.941406 12.703125 -6.796875 C 12.703125 -5.398438 12.472656 -4.195312 12.015625 -3.1875 C 11.554688 -2.175781 10.867188 -1.390625 9.953125 -0.828125 C 9.035156 -0.273438 7.894531 0 6.53125 0 Z M 4.4375 -0.1875 L 6.09375 -0.1875 C 7.664062 -0.1875 8.8125 -0.707031 9.53125 -1.75 C 10.25 -2.789062 10.609375 -4.472656 10.609375 -6.796875 C 10.609375 -9.097656 10.25 -10.765625 9.53125 -11.796875 C 8.8125 -12.835938 7.671875 -13.359375 6.109375 -13.359375 L 4.4375 -13.359375 Z M 4.4375 -0.1875 "/></g></g></g><g fill="#222222" fill-opacity="1"><g transform="translate(217.06561, 228.312494)"><g><path d="M 0.71875 0 L 0.71875 -0.1875 L 0.96875 -0.1875 C 2 -0.1875 2.515625 -0.644531 2.515625 -1.5625 L 2.515625 -12.0625 C 2.515625 -12.925781 2 -13.359375 0.96875 -13.359375 L 0.71875 -13.359375 L 0.71875 -13.546875 L 6.234375 -13.546875 L 6.234375 -13.359375 L 6 -13.359375 C 4.957031 -13.359375 4.4375 -12.898438 4.4375 -11.984375 L 4.4375 -1.5625 C 4.4375 -0.644531 4.957031 -0.1875 6 -0.1875 L 6.234375 -0.1875 L 6.234375 0 Z M 0.71875 0 "/></g></g></g><g fill="#222222" fill-opacity="1"><g transform="translate(234.307542, 228.312494)"><g><path d="M 7.03125 0.1875 C 5.695312 0.1875 4.585938 -0.101562 3.703125 -0.6875 C 2.816406 -1.269531 2.15625 -2.082031 1.71875 -3.125 C 1.28125 -4.175781 1.0625 -5.40625 1.0625 -6.8125 C 1.0625 -8.21875 1.28125 -9.4375 1.71875 -10.46875 C 2.15625 -11.507812 2.816406 -12.316406 3.703125 -12.890625 C 4.597656 -13.460938 5.71875 -13.75 7.0625 -13.75 C 8.320312 -13.75 9.394531 -13.460938 10.28125 -12.890625 C 11.164062 -12.316406 11.835938 -11.503906 12.296875 -10.453125 C 12.765625 -9.410156 13 -8.191406 13 -6.796875 C 13 -5.390625 12.765625 -4.164062 12.296875 -3.125 C 11.835938 -2.082031 11.164062 -1.269531 10.28125 -0.6875 C 9.394531 -0.101562 8.3125 0.1875 7.03125 0.1875 Z M 7.03125 0 C 8.382812 0 9.363281 -0.535156 9.96875 -1.609375 C 10.582031 -2.679688 10.890625 -4.410156 10.890625 -6.796875 C 10.890625 -9.171875 10.582031 -10.890625 9.96875 -11.953125 C 9.363281 -13.023438 8.394531 -13.5625 7.0625 -13.5625 C 5.707031 -13.5625 4.71875 -13.023438 4.09375 -11.953125 C 3.476562 -10.890625 3.171875 -9.171875 3.171875 -6.796875 C 3.171875 -4.410156 3.472656 -2.679688 4.078125 -1.609375 C 4.691406 -0.535156 5.675781 0 7.03125 0 Z M 7.03125 0 "/></g></g></g></svg>